<svg width="250" height="250" viewBox="0 0 250 250" fill="none" xmlns="http://www.w3.org/2000/svg">
<rect width="250" height="250" rx="50" fill="black"/>
<path fill-rule="evenodd" clip-rule="evenodd" d="M112.719 70V95.7573C116.381 93.494 120.627 92.2673 125 92.2673C129.373 92.2673 133.619 93.494 137.281 95.7573V70H148.392V87.6433C156.425 78.6151 168.12 72.9299 181.14 72.9299C205.363 72.9299 225 92.6063 225 116.878C225 141.15 205.363 160.827 181.14 160.827C156.918 160.827 137.281 141.15 137.281 116.878C137.281 116.487 137.286 116.096 137.296 115.707H137.281V114.004C136.913 111.338 135.687 108.847 133.767 106.922C131.442 104.593 128.288 103.284 125 103.284C121.712 103.284 118.558 104.593 116.233 106.922C114.187 108.973 112.929 111.668 112.658 114.532C112.699 115.309 112.719 116.091 112.719 116.878C112.719 129.159 107.692 140.263 99.5883 148.238C100.047 151.294 101.101 154.242 102.702 156.911C104.912 160.594 108.08 163.606 111.868 165.622C115.656 167.638 119.92 168.583 124.203 168.356C128.486 168.128 132.627 166.737 136.181 164.331L139.158 168.748L139.454 169.187L142.432 173.603C140.802 174.707 139.088 175.665 137.309 176.473C133.38 178.256 129.136 179.299 124.794 179.53C118.487 179.864 112.207 178.473 106.629 175.503C101.051 172.534 96.3854 168.1 93.131 162.675C91.7643 160.397 90.6678 157.98 89.8567 155.473C83.6205 158.887 76.4662 160.827 68.8596 160.827C44.6366 160.827 25 141.15 25 116.878C25 92.6063 44.6366 72.9299 68.8596 72.9299C81.8801 72.9299 93.5754 78.6151 101.608 87.6433V70H112.719ZM36.4035 116.878C36.4035 134.84 50.9346 149.4 68.8596 149.4C86.7848 149.4 101.316 134.84 101.316 116.878C101.316 98.9171 86.7848 84.3565 68.8596 84.3565C50.9346 84.3565 36.4035 98.9171 36.4035 116.878ZM181.14 149.4C199.065 149.4 213.596 134.84 213.596 116.878C213.596 98.9171 199.065 84.3565 181.14 84.3565C163.215 84.3565 148.684 98.9171 148.684 116.878C148.684 134.84 163.215 149.4 181.14 149.4Z" fill="white"/>
</svg>
